<svg xmlns="http://www.w3.org/2000/svg" viewBox="11.6 238.5 591.7 113.5"><path fill="none" d="M0 223.9h612v344.2H0z"/><path fill="#CCC" d="M383.1 239.5h219.3v3.7H383.1v-3.7z"/><path fill="#1C4587" d="M383.1 243.2h219.3V351H383.1V243.2z"/><path fill="#CCC" d="M204.8 239.5h164.4v3.7H204.8v-3.7z"/><path fill="#1C4587" d="M204.8 243.2h164.4V351H204.8V243.2zM81.3 243.2h109.6V351H81.3V243.2z"/><path fill="#CCC" d="M81.3 239.5h109.6v3.7H81.3v-3.7zM12.6 239.5h54.8v3.7H12.6v-3.7z"/><path fill="#1C4587" d="M12.6 243.2h54.8V351H12.6V243.2z"/><path fill-opacity="0" d="M383.1 239.5h219.3V351H383.1V239.5z"/><path fill="none" stroke="#000" stroke-width="2" stroke-linejoin="round" stroke-miterlimit="10" d="M383.1 239.5h219.3V351H383.1V239.5z"/><path fill-opacity="0" d="M204.8 239.5h164.4V351H204.8V239.5z"/><path fill="none" stroke="#000" stroke-width="2" stroke-linejoin="round" stroke-miterlimit="10" d="M204.8 239.5h164.4V351H204.8V239.5z"/><path fill-opacity="0" d="M81.3 239.5h109.6V351H81.3V239.5z"/><path fill="none" stroke="#000" stroke-width="2" stroke-linejoin="round" stroke-miterlimit="10" d="M81.3 239.5h109.6V351H81.3V239.5z"/><path fill-opacity="0" d="M12.6 239.5h54.8V351H12.6V239.5z"/><path fill="none" stroke="#000" stroke-width="2" stroke-linejoin="round" stroke-miterlimit="10" d="M12.6 239.5h54.8V351H12.6V239.5z"/></svg>